<svg width="502.566162" height="554.105957" viewBox="0 0 502.566 554.106" fill="none" xmlns="http://www.w3.org/2000/svg" xmlns:xlink="http://www.w3.org/1999/xlink">
	<desc>
			Created with Pixso.
	</desc>
	<defs>
		<clipPath id="clip370_482">
			<rect id="fi_11987402" rx="-0.500000" width="110.000000" height="110.000000" transform="translate(322.619873 227.500000) rotate(6.150772)" fill="white" fill-opacity="0"/>
		</clipPath>
		<linearGradient x1="611.529785" y1="585.593262" x2="499.091583" y2="578.180359" id="paint_linear_370_473_0" gradientUnits="userSpaceOnUse">
			<stop stop-color="#000000"/>
			<stop offset="1.000000" stop-color="#575757"/>
		</linearGradient>
		<linearGradient x1="251.232544" y1="374.136536" x2="145.229172" y2="357.860077" id="paint_linear_370_478_0" gradientUnits="userSpaceOnUse">
			<stop stop-color="#000000"/>
			<stop offset="1.000000" stop-color="#575757"/>
		</linearGradient>
		<linearGradient x1="546.987122" y1="73.474991" x2="297.916107" y2="68.463974" id="paint_linear_370_474_0" gradientUnits="userSpaceOnUse">
			<stop stop-color="#000000"/>
			<stop offset="1.000000" stop-color="#575757"/>
		</linearGradient>
	</defs>
	<rect id="fi_11987402" rx="-0.500000" width="110.000000" height="110.000000" transform="translate(322.619873 227.500000) rotate(6.150772)" fill="#FFFFFF" fill-opacity="0"/>
	<g clip-path="url(#clip370_482)">
		<path id="Vector" d="M408.3 285.13C407.36 285.03 406.5 285.72 406.39 286.67L401.38 333.22C400.97 337.04 397.55 339.79 393.74 339.38L348.9 334.55C345.09 334.14 342.34 330.72 342.75 326.91L344.79 307.94C344.89 306.99 344.2 306.13 343.25 306.03C342.31 305.93 341.45 306.62 341.34 307.57L339.3 326.53C338.68 332.24 342.82 337.38 348.53 338L393.36 342.83C399.07 343.44 404.21 339.3 404.83 333.6L409.84 287.04C409.95 286.09 409.25 285.23 408.3 285.13Z" fill="#424242" fill-opacity="1.000000" fill-rule="nonzero"/>
		<path id="Vector" d="M349.57 247.4C350.52 247.5 351.38 246.81 351.48 245.86L351.67 244.14C352.08 240.32 355.5 237.57 359.31 237.98L368.48 238.97L370.06 244.56C370.64 246.63 372.38 248.11 374.52 248.34L387.09 249.7C389.21 249.93 391.25 248.85 392.25 246.96L394.99 241.83L404.16 242.81C407.97 243.23 410.72 246.64 410.31 250.46L409.39 259.08C409.28 260.03 409.98 260.89 410.92 260.99C411.87 261.09 412.73 260.4 412.83 259.45L413.76 250.83C414.38 245.12 410.24 239.98 404.53 239.37L359.7 234.53C353.99 233.92 348.85 238.06 348.24 243.77L348.05 245.49C347.95 246.44 348.64 247.3 349.59 247.4L349.57 247.4ZM391.24 241.42L389.17 245.33C388.84 245.96 388.15 246.32 387.44 246.25L374.87 244.89C374.17 244.82 373.58 244.32 373.39 243.63L372.19 239.37L391.24 241.42Z" fill="#424242" fill-opacity="1.000000" fill-rule="nonzero"/>
		<path id="Vector" d="M346.23 278.44C350.99 278.95 355.26 275.5 355.78 270.74C356.29 265.99 352.84 261.71 348.09 261.19C343.33 260.68 339.05 264.13 338.53 268.89C338.02 273.65 341.47 277.92 346.23 278.44ZM347.71 264.64C350.56 264.95 352.64 267.53 352.33 270.37C352.02 273.22 349.44 275.29 346.6 274.99C343.75 274.68 341.68 272.1 341.98 269.26C342.29 266.41 344.87 264.34 347.71 264.64Z" fill="#424242" fill-opacity="1.000000" fill-rule="nonzero"/>
		<path id="Vector" d="M326.49 293.41C330.66 298.39 336.66 301.83 343.63 302.58C350.59 303.33 357.18 301.23 362.32 297.27C362.4 297.22 362.47 297.16 362.55 297.1C367.83 292.92 371.52 286.71 372.3 279.5C373.83 265.24 363.48 252.39 349.22 250.85C334.96 249.31 322.08 259.67 320.55 273.93C319.77 281.13 322.05 287.99 326.32 293.2C326.38 293.27 326.43 293.33 326.51 293.41L326.49 293.41ZM329.68 291.78L330.46 289.93C331.96 286.37 335.54 284.25 339.36 284.66L351.57 285.97C355.4 286.39 358.45 289.21 359.15 293.02L359.52 294.98C355.17 298.1 349.71 299.73 343.96 299.11C338.22 298.49 333.25 295.74 329.65 291.76L329.68 291.78ZM348.83 254.3C361.19 255.63 370.16 266.76 368.83 279.13C368.27 284.32 365.96 288.9 362.59 292.39C361.59 287.09 357.34 283.12 351.96 282.54L339.75 281.23C334.39 280.65 329.38 283.62 327.27 288.59C324.7 284.46 323.43 279.51 324 274.3C325.33 261.93 336.46 252.96 348.83 254.3Z" fill="#424242" fill-opacity="1.000000" fill-rule="nonzero"/>
		<path id="Vector" d="M389.81 311.04L358.77 307.7C357.82 307.6 356.96 308.29 356.86 309.24C356.76 310.19 357.45 311.05 358.4 311.15L389.44 314.49C390.39 314.6 391.25 313.9 391.35 312.96C391.45 312.01 390.76 311.15 389.81 311.04Z" fill="#424242" fill-opacity="1.000000" fill-rule="nonzero"/>
		<path id="Vector" d="M357.47 319.77L372.99 321.44C373.94 321.54 374.8 320.85 374.9 319.9C375 318.96 374.31 318.1 373.36 317.99L357.84 316.32C356.9 316.22 356.04 316.91 355.93 317.86C355.83 318.81 356.52 319.67 357.47 319.77Z" fill="#424242" fill-opacity="1.000000" fill-rule="nonzero"/>
		<path id="Vector" d="M356.54 328.39L387.58 331.74C388.53 331.84 389.39 331.15 389.49 330.2C389.59 329.25 388.9 328.39 387.95 328.29L356.91 324.94C355.97 324.84 355.11 325.53 355 326.48C354.9 327.43 355.59 328.29 356.54 328.39Z" fill="#424242" fill-opacity="1.000000" fill-rule="nonzero"/>
		<path id="Vector" d="M417.43 265.18L393.29 262.58C388.53 262.06 384.25 265.51 383.74 270.27C383.23 275.03 386.67 279.31 391.43 279.82L415.57 282.42C420.33 282.93 424.61 279.49 425.13 274.73C425.64 269.97 422.19 265.69 417.43 265.18ZM415.95 278.97L391.8 276.37C388.96 276.07 386.88 273.49 387.19 270.64C387.5 267.79 390.07 265.72 392.92 266.03L417.06 268.63C419.91 268.93 421.98 271.51 421.68 274.36C421.37 277.2 418.79 279.28 415.95 278.97Z" fill="#424242" fill-opacity="1.000000" fill-rule="nonzero"/>
	</g>
	<rect id="Rectangle 8" x="445.922607" y="554.105957" rx="34.679031" width="166.709076" height="69.358063" transform="rotate(-144.294 445.922607 554.105957)" fill="url(#paint_linear_370_473_0)" fill-opacity="1.000000"/>
	<rect id="Rectangle 10" x="95.103027" y="305.000000" rx="70.000000" width="157.168442" height="152.289398" transform="rotate(38.6448 95.103027 305.000000)" fill="url(#paint_linear_370_478_0)" fill-opacity="1.000000"/>
	<rect id="Rectangle 9" x="303.684326" rx="70.000000" width="244.921783" height="161.845840" transform="rotate(35.7061 303.684326 0.000000)" fill="url(#paint_linear_370_474_0)" fill-opacity="1.000000"/>
</svg>
