<svg width="578.188843" height="364.105957" viewBox="0 0 578.189 364.106" fill="none" xmlns="http://www.w3.org/2000/svg" xmlns:xlink="http://www.w3.org/1999/xlink">
	<desc>
			Created with Pixso.
	</desc>
	<defs>
		<clipPath id="clip370_343">
			<rect id="fi_7075369" rx="-0.500000" width="115.000000" height="115.000000" transform="translate(273.500000 167.595703) rotate(-10.980823)" fill="white" fill-opacity="0"/>
		</clipPath>
		<linearGradient x1="386.187347" y1="404.507416" x2="241.917236" y2="394.995941" id="paint_linear_370_337_0" gradientUnits="userSpaceOnUse">
			<stop stop-color="#000000"/>
			<stop offset="1.000000" stop-color="#575757"/>
		</linearGradient>
		<linearGradient x1="622.609924" y1="68.690643" x2="373.538940" y2="64.005966" id="paint_linear_370_338_0" gradientUnits="userSpaceOnUse">
			<stop stop-color="#000000"/>
			<stop offset="1.000000" stop-color="#575757"/>
		</linearGradient>
	</defs>
	<rect id="fi_7075369" rx="-0.500000" width="115.000000" height="115.000000" transform="translate(273.500000 167.595703) rotate(-10.980823)" fill="#FFFFFF" fill-opacity="0"/>
	<g clip-path="url(#clip370_343)">
		<path id="Vector" d="M334.47 169.93L323.8 172C322.82 172.19 321.87 171.55 321.67 170.57C321.48 169.59 322.13 168.64 323.11 168.45L333.78 166.37C334.77 166.18 335.72 166.83 335.91 167.81C336.1 168.79 335.46 169.74 334.47 169.93Z" fill="#424242" fill-opacity="1.000000" fill-rule="nonzero"/>
		<path id="Vector" d="M367.35 263.25L328.21 270.85C323.3 271.8 318.54 268.58 317.58 263.68L312.75 238.77C312.56 237.79 313.2 236.83 314.19 236.64C315.17 236.45 316.12 237.1 316.31 238.08L321.14 262.99C321.71 265.93 324.57 267.86 327.52 267.29L366.66 259.7C369.61 259.12 371.54 256.26 370.96 253.32L359.23 192.82C359.04 191.84 359.68 190.89 360.66 190.7C361.64 190.51 362.59 191.15 362.78 192.13L374.52 252.63C375.47 257.53 372.26 262.3 367.35 263.25Z" fill="#424242" fill-opacity="1.000000" fill-rule="nonzero"/>
		<path id="Vector" d="M356.52 169.35C355.54 169.54 354.58 168.9 354.39 167.91L353.7 164.36C353.13 161.41 350.27 159.48 347.33 160.05L308.18 167.65C305.24 168.22 303.31 171.08 303.88 174.02L304.57 177.58C304.76 178.56 304.12 179.52 303.14 179.71C302.16 179.9 301.2 179.25 301.01 178.27L300.32 174.71C299.37 169.81 302.59 165.04 307.49 164.09L346.64 156.49C351.55 155.54 356.31 158.76 357.26 163.67L357.95 167.22C358.14 168.21 357.5 169.16 356.52 169.35Z" fill="#424242" fill-opacity="1.000000" fill-rule="nonzero"/>
		<path id="Vector" d="M341.86 246.04L327.62 248.81C326.64 249 325.69 248.35 325.5 247.37C325.31 246.39 325.95 245.44 326.93 245.25L341.17 242.49C342.15 242.3 343.1 242.94 343.29 243.92C343.48 244.9 342.84 245.85 341.86 246.04Z" fill="#424242" fill-opacity="1.000000" fill-rule="nonzero"/>
		<path id="Vector" d="M353.91 251.09L329 255.92C328.02 256.11 327.07 255.47 326.88 254.49C326.69 253.51 327.33 252.56 328.31 252.37L353.22 247.53C354.21 247.34 355.16 247.98 355.35 248.97C355.54 249.95 354.9 250.9 353.91 251.09Z" fill="#424242" fill-opacity="1.000000" fill-rule="nonzero"/>
		<path id="Vector" d="M358.27 235.48L326.24 241.69C325.26 241.88 324.31 241.24 324.12 240.26C323.93 239.27 324.57 238.32 325.55 238.13L357.58 231.92C358.56 231.73 359.51 232.37 359.7 233.35C359.89 234.33 359.25 235.28 358.27 235.48Z" fill="#424242" fill-opacity="1.000000" fill-rule="nonzero"/>
		<path id="Vector" d="M314.69 210.7C309.78 211.65 305.02 208.43 304.07 203.53C303.12 198.62 306.33 193.86 311.24 192.9C316.15 191.95 320.91 195.17 321.86 200.07C322.81 204.98 319.6 209.75 314.69 210.7ZM311.93 196.46C308.99 197.03 307.05 199.89 307.63 202.84C308.2 205.78 311.06 207.71 314 207.14C316.94 206.57 318.87 203.71 318.3 200.77C317.73 197.82 314.87 195.89 311.93 196.46Z" fill="#424242" fill-opacity="1.000000" fill-rule="nonzero"/>
		<path id="Vector" d="M318.83 232.05C312.59 233.26 306.14 232.07 300.68 228.7C300.12 228.35 299.79 227.72 299.83 227.06C300.12 221.24 304.32 216.4 310.04 215.29L320.72 213.22C326.44 212.11 332.15 215.03 334.6 220.31C334.88 220.91 334.8 221.62 334.41 222.15C330.61 227.32 325.07 230.84 318.83 232.05ZM303.56 226.18C312.5 231.09 324.35 228.79 330.8 220.89C328.86 217.73 325.14 216.06 321.41 216.78L310.73 218.85C307 219.57 304.18 222.51 303.56 226.18Z" fill="#424242" fill-opacity="1.000000" fill-rule="nonzero"/>
		<path id="Vector" d="M318.83 232.05C305.1 234.71 291.75 225.71 289.09 211.97C286.42 198.24 295.43 184.89 309.17 182.23C322.9 179.56 336.24 188.57 338.91 202.31C341.58 216.04 332.57 229.38 318.83 232.05ZM309.86 185.79C298.08 188.07 290.36 199.51 292.65 211.28C294.93 223.06 306.37 230.78 318.14 228.49C329.92 226.21 337.64 214.77 335.35 203C333.07 191.22 321.63 183.5 309.86 185.79Z" fill="#424242" fill-opacity="1.000000" fill-rule="nonzero"/>
		<path id="Vector" d="M304.86 245.65C303.87 245.85 302.96 245.38 302.77 244.4L302.7 244.04C302.51 243.06 303.15 242.11 304.13 241.92C305.11 241.73 306.07 242.37 306.26 243.35C306.45 244.33 305.84 245.46 304.86 245.65Z" fill="#424242" fill-opacity="1.000000" fill-rule="nonzero"/>
		<path id="Vector" d="M306.24 252.77C305.25 252.96 304.34 252.5 304.15 251.52L304.08 251.16C303.89 250.18 304.53 249.23 305.51 249.04C306.49 248.84 307.45 249.49 307.64 250.47C307.83 251.45 307.22 252.58 306.24 252.77Z" fill="#424242" fill-opacity="1.000000" fill-rule="nonzero"/>
		<path id="Vector" d="M307.62 259.89C306.64 260.08 305.72 259.62 305.53 258.63L305.46 258.28C305.27 257.29 305.91 256.34 306.89 256.15C307.88 255.96 308.83 256.6 309.02 257.59C309.21 258.57 308.6 259.7 307.62 259.89Z" fill="#424242" fill-opacity="1.000000" fill-rule="nonzero"/>
		<path id="Vector" d="M378.26 246.37L375.27 246.95C374.28 247.14 373.33 246.5 373.14 245.51C372.95 244.53 373.59 243.58 374.58 243.39L376.13 243.09L376.22 238.88C376.23 238.18 376.65 237.56 377.28 237.27C378.88 236.54 380.38 235.54 381.75 234.29C382.25 233.83 382.99 233.7 383.63 233.95L387.59 235.52L389.35 232.89L386.42 229.84C385.94 229.34 385.79 228.6 386.03 227.95C386.67 226.22 387.03 224.45 387.11 222.69C387.14 222 387.56 221.39 388.2 221.11L392.08 219.42L391.49 216.37L387.26 216.26C386.56 216.24 385.94 215.83 385.66 215.2C384.93 213.59 383.92 212.09 382.68 210.72C382.22 210.21 382.08 209.48 382.34 208.83L383.91 204.87L381.31 203.11L378.22 206.05C377.72 206.53 376.99 206.68 376.34 206.44C374.61 205.8 372.84 205.43 371.08 205.35C370.39 205.32 369.77 204.89 369.5 204.25L367.85 200.38L366.29 200.69C365.31 200.88 364.36 200.23 364.17 199.25C363.98 198.27 364.62 197.32 365.6 197.13L368.59 196.55C369.43 196.38 370.27 196.83 370.6 197.62L372.4 201.82C373.78 201.96 375.16 202.25 376.52 202.67L379.87 199.49C380.49 198.91 381.43 198.82 382.13 199.3L387.15 202.68C387.85 203.16 388.13 204.06 387.82 204.85L386.12 209.15C387.02 210.26 387.8 211.43 388.45 212.66L393.03 212.78C393.88 212.8 394.6 213.41 394.77 214.25L395.91 220.15C396.07 220.99 395.63 221.83 394.85 222.16L390.65 223.99C390.51 225.37 390.22 226.75 389.79 228.11L392.97 231.43C393.56 232.04 393.65 232.98 393.17 233.69L389.79 238.74C389.31 239.45 388.41 239.73 387.62 239.42L383.32 237.71C382.21 238.62 381.04 239.4 379.82 240.05L379.72 244.62C379.7 245.48 379.09 246.21 378.26 246.37Z" fill="#424242" fill-opacity="1.000000" fill-rule="nonzero"/>
		<path id="Vector" d="M376.09 231.16C375.42 231.29 374.71 231.03 374.28 230.44C373.69 229.64 373.87 228.5 374.68 227.91C376.96 226.26 378.09 223.41 377.55 220.66C376.79 216.73 372.98 214.16 369.05 214.92C368.09 215.11 367.2 215.48 366.4 216.02C365.57 216.58 364.44 216.36 363.88 215.52C363.32 214.7 363.54 213.57 364.37 213.01C365.57 212.2 366.92 211.64 368.36 211.36C374.25 210.22 379.97 214.08 381.11 219.97C381.91 224.1 380.22 228.38 376.81 230.85C376.59 231.01 376.34 231.11 376.09 231.16Z" fill="#424242" fill-opacity="1.000000" fill-rule="nonzero"/>
		<path id="Vector" d="M372.42 184.72L351.07 188.87C347.15 189.63 343.34 187.06 342.57 183.13C341.81 179.21 344.39 175.39 348.31 174.63L369.66 170.49C373.59 169.73 377.4 172.3 378.16 176.23C378.92 180.15 376.35 183.96 372.42 184.72ZM349 178.19C347.04 178.57 345.75 180.48 346.13 182.44C346.51 184.4 348.42 185.69 350.38 185.31L371.73 181.17C373.7 180.78 374.98 178.88 374.6 176.92C374.22 174.96 372.32 173.67 370.35 174.05L349 178.19Z" fill="#424242" fill-opacity="1.000000" fill-rule="nonzero"/>
	</g>
	<rect id="Rectangle 8" x="173.695801" y="364.105957" rx="44.496883" width="213.905472" height="88.993767" transform="rotate(-144.294 173.695801 364.105957)" fill="url(#paint_linear_370_337_0)" fill-opacity="1.000000"/>
	<rect id="Rectangle 9" x="379.307129" rx="70.000000" width="244.921783" height="151.307205" transform="rotate(35.7061 379.307129 0.000000)" fill="url(#paint_linear_370_338_0)" fill-opacity="1.000000"/>
</svg>
